<svg width="20" height="20" viewBox="0 0 20 20" fill="none" xmlns="http://www.w3.org/2000/svg">
<path d="M14.6567 0C18.0889 0 20 1.78 20 4.83V15.16C20 18.26 18.0889 20 14.6567 20H5.34444C1.96667 20 0 18.26 0 15.16V4.83C0 1.78 1.96667 0 5.34444 0H14.6567ZM5.64444 13.74C5.31111 13.71 4.98889 13.85 4.81111 14.11C4.63333 14.36 4.63333 14.69 4.81111 14.95C4.98889 15.2 5.31111 15.35 5.64444 15.31H14.3556C14.7989 15.27 15.1333 14.929 15.1333 14.53C15.1333 14.12 14.7989 13.78 14.3556 13.74H5.64444ZM14.3556 9.179H5.64444C5.16556 9.179 4.77778 9.53 4.77778 9.96C4.77778 10.39 5.16556 10.74 5.64444 10.74H14.3556C14.8333 10.74 15.2222 10.39 15.2222 9.96C15.2222 9.53 14.8333 9.179 14.3556 9.179ZM8.96556 4.65H5.64444V4.66C5.16556 4.66 4.77778 5.01 4.77778 5.44C4.77778 5.87 5.16556 6.22 5.64444 6.22H8.96556C9.44445 6.22 9.83333 5.87 9.83333 5.429C9.83333 5 9.44445 4.65 8.96556 4.65Z" fill="black"/>
</svg>
