<svg width="21" height="21" viewBox="0 0 21 21" fill="none" xmlns="http://www.w3.org/2000/svg">
<path d="M14.6563 3.115V1.75C14.6563 1.39125 14.3588 1.09375 14 1.09375C13.6413 1.09375 13.3438 1.39125 13.3438 1.75V3.0625H7.65627V1.75C7.65627 1.39125 7.35877 1.09375 7.00002 1.09375C6.64127 1.09375 6.34377 1.39125 6.34377 1.75V3.115C3.98127 3.33375 2.83502 4.7425 2.66002 6.83375C2.64252 7.0875 2.85252 7.2975 3.09752 7.2975H17.9025C18.1563 7.2975 18.3663 7.07875 18.34 6.83375C18.165 4.7425 17.0188 3.33375 14.6563 3.115Z" fill="#0C1E33"/>
<path d="M17.5 8.60986H3.5C3.01875 8.60986 2.625 9.00361 2.625 9.48486V14.8749C2.625 17.4999 3.9375 19.2499 7 19.2499H14C17.0625 19.2499 18.375 17.4999 18.375 14.8749V9.48486C18.375 9.00361 17.9813 8.60986 17.5 8.60986ZM8.05875 15.9336C7.97125 16.0124 7.875 16.0736 7.77 16.1174C7.665 16.1611 7.55125 16.1874 7.4375 16.1874C7.32375 16.1874 7.21 16.1611 7.105 16.1174C7 16.0736 6.90375 16.0124 6.81625 15.9336C6.65875 15.7674 6.5625 15.5399 6.5625 15.3124C6.5625 15.0849 6.65875 14.8574 6.81625 14.6911C6.90375 14.6124 7 14.5511 7.105 14.5074C7.315 14.4199 7.56 14.4199 7.77 14.5074C7.875 14.5511 7.97125 14.6124 8.05875 14.6911C8.21625 14.8574 8.3125 15.0849 8.3125 15.3124C8.3125 15.5399 8.21625 15.7674 8.05875 15.9336ZM8.2425 12.5824C8.19875 12.6874 8.1375 12.7836 8.05875 12.8711C7.97125 12.9499 7.875 13.0111 7.77 13.0549C7.665 13.0986 7.55125 13.1249 7.4375 13.1249C7.32375 13.1249 7.21 13.0986 7.105 13.0549C7 13.0111 6.90375 12.9499 6.81625 12.8711C6.7375 12.7836 6.67625 12.6874 6.6325 12.5824C6.58875 12.4774 6.5625 12.3636 6.5625 12.2499C6.5625 12.1361 6.58875 12.0224 6.6325 11.9174C6.67625 11.8124 6.7375 11.7161 6.81625 11.6286C6.90375 11.5499 7 11.4886 7.105 11.4449C7.315 11.3574 7.56 11.3574 7.77 11.4449C7.875 11.4886 7.97125 11.5499 8.05875 11.6286C8.1375 11.7161 8.19875 11.8124 8.2425 11.9174C8.28625 12.0224 8.3125 12.1361 8.3125 12.2499C8.3125 12.3636 8.28625 12.4774 8.2425 12.5824ZM11.1213 12.8711C11.0338 12.9499 10.9375 13.0111 10.8325 13.0549C10.7275 13.0986 10.6138 13.1249 10.5 13.1249C10.3863 13.1249 10.2725 13.0986 10.1675 13.0549C10.0625 13.0111 9.96625 12.9499 9.87875 12.8711C9.72125 12.7049 9.625 12.4774 9.625 12.2499C9.625 12.0224 9.72125 11.7949 9.87875 11.6286C9.96625 11.5499 10.0625 11.4886 10.1675 11.4449C10.3775 11.3486 10.6225 11.3486 10.8325 11.4449C10.9375 11.4886 11.0338 11.5499 11.1213 11.6286C11.2788 11.7949 11.375 12.0224 11.375 12.2499C11.375 12.4774 11.2788 12.7049 11.1213 12.8711Z" fill="#0C1E33"/>
</svg>
