<svg width="165" height="32" viewBox="0 0 165 32" fill="none" xmlns="http://www.w3.org/2000/svg">
<path d="M40.1889 25C39.8855 25 39.62 24.8957 39.3925 24.6871C39.1839 24.4596 39.0796 24.1941 39.0796 23.8907V3.89422C39.0796 3.57185 39.1839 3.30637 39.3925 3.09777C39.62 2.88918 39.8855 2.78489 40.1889 2.78489C40.644 2.78489 40.9759 2.97452 41.1845 3.35378L50.7703 22.4116H49.8031L59.2183 3.35378C59.4458 2.97452 59.7777 2.78489 60.2138 2.78489C60.5172 2.78489 60.7732 2.88918 60.9818 3.09777C61.1904 3.30637 61.2947 3.57185 61.2947 3.89422V23.8907C61.2947 24.1941 61.1904 24.4596 60.9818 24.6871C60.7732 24.8957 60.5172 25 60.2138 25C59.8914 25 59.6165 24.8957 59.3889 24.6871C59.1803 24.4596 59.076 24.1941 59.076 23.8907V6.76711L59.5596 6.79555L51.1685 23.9476C50.9599 24.3079 50.6375 24.488 50.2014 24.488C49.7273 24.488 49.386 24.2604 49.1774 23.8053L40.7294 6.90933L41.2982 6.76711V23.8907C41.2982 24.1941 41.1845 24.4596 40.9569 24.6871C40.7483 24.8957 40.4923 25 40.1889 25ZM68.9589 31.7698C68.8072 31.7698 68.6365 31.7319 68.4469 31.656C67.8022 31.3716 67.622 30.9164 67.9065 30.2907L77.094 10.0382C77.3785 9.43141 77.8336 9.26074 78.4594 9.52622C79.1041 9.7917 79.2843 10.2373 78.9998 10.8631L69.7838 31.1156C69.5942 31.5517 69.3192 31.7698 68.9589 31.7698ZM72.1163 24.5164C71.8318 24.6492 71.5663 24.6776 71.3198 24.6018C71.0733 24.507 70.8742 24.3173 70.7225 24.0329L64.3794 10.8916C64.2466 10.6071 64.2277 10.3416 64.3225 10.0951C64.4173 9.84859 64.6069 9.65896 64.8914 9.52622C65.1758 9.39348 65.4413 9.37452 65.6878 9.46933C65.9343 9.54518 66.124 9.72533 66.2567 10.0098L72.486 23.1511C72.6377 23.4356 72.6851 23.701 72.6283 23.9476C72.5714 24.1941 72.4007 24.3837 72.1163 24.5164ZM82.8356 25C82.5132 25 82.2477 24.8957 82.0391 24.6871C81.8306 24.4785 81.7263 24.213 81.7263 23.8907V3.89422C81.7263 3.57185 81.8306 3.30637 82.0391 3.09777C82.2477 2.88918 82.5132 2.78489 82.8356 2.78489H88.5245C89.9277 2.78489 91.1698 3.09778 92.2507 3.72355C93.3316 4.33037 94.1754 5.17422 94.7823 6.25511C95.3891 7.336 95.6925 8.58755 95.6925 10.0098C95.6925 11.3941 95.3891 12.6267 94.7823 13.7076C94.1754 14.7695 93.3316 15.6133 92.2507 16.2391C91.1698 16.8459 89.9277 17.1493 88.5245 17.1493H83.9449V23.8907C83.9449 24.213 83.8406 24.4785 83.632 24.6871C83.4234 24.8957 83.158 25 82.8356 25ZM83.9449 15.016H88.5245C89.4916 15.016 90.3544 14.8074 91.1129 14.3902C91.8714 13.9541 92.4593 13.3567 92.8765 12.5982C93.3126 11.8397 93.5307 10.9769 93.5307 10.0098C93.5307 9.00474 93.3126 8.12296 92.8765 7.36444C92.4593 6.60592 91.8714 6.00859 91.1129 5.57244C90.3544 5.13629 89.4916 4.91822 88.5245 4.91822H83.9449V15.016ZM104.959 25.1422C103.442 25.1422 102.086 24.8009 100.891 24.1182C99.6967 23.4356 98.758 22.4969 98.0754 21.3022C97.3927 20.1076 97.0514 18.7517 97.0514 17.2347C97.0514 15.6987 97.3927 14.3333 98.0754 13.1387C98.758 11.944 99.6967 11.0053 100.891 10.3227C102.086 9.64 103.442 9.29866 104.959 9.29866C106.476 9.29866 107.822 9.64 108.998 10.3227C110.193 11.0053 111.131 11.944 111.814 13.1387C112.497 14.3333 112.848 15.6987 112.866 17.2347C112.866 18.7517 112.516 20.1076 111.814 21.3022C111.131 22.4969 110.193 23.4356 108.998 24.1182C107.822 24.8009 106.476 25.1422 104.959 25.1422ZM104.959 23.1511C106.059 23.1511 107.045 22.8951 107.917 22.3831C108.789 21.8711 109.472 21.1695 109.965 20.2782C110.458 19.387 110.705 18.3724 110.705 17.2347C110.705 16.0969 110.458 15.0824 109.965 14.1911C109.472 13.2809 108.789 12.5698 107.917 12.0578C107.045 11.5458 106.059 11.2898 104.959 11.2898C103.859 11.2898 102.873 11.5458 102.001 12.0578C101.128 12.5698 100.436 13.2809 99.9243 14.1911C99.4312 15.0824 99.1847 16.0969 99.1847 17.2347C99.1847 18.3724 99.4312 19.387 99.9243 20.2782C100.436 21.1695 101.128 21.8711 102.001 22.3831C102.873 22.8951 103.859 23.1511 104.959 23.1511ZM117.61 15.4142C117.667 14.2385 117.97 13.1861 118.52 12.2569C119.089 11.3277 119.819 10.5976 120.71 10.0667C121.62 9.5357 122.626 9.27022 123.725 9.27022C124.598 9.27022 125.271 9.39348 125.745 9.64C126.219 9.88652 126.399 10.2468 126.285 10.7209C126.21 11.0053 126.077 11.195 125.887 11.2898C125.716 11.3846 125.498 11.4225 125.233 11.4036C124.986 11.3846 124.702 11.3656 124.38 11.3467C123.318 11.2519 122.37 11.3656 121.535 11.688C120.72 11.9914 120.066 12.4655 119.572 13.1102C119.098 13.755 118.861 14.523 118.861 15.4142H117.61ZM117.78 25C117.439 25 117.174 24.9052 116.984 24.7156C116.794 24.5259 116.7 24.2604 116.7 23.9191V10.5218C116.7 10.1804 116.794 9.91496 116.984 9.72533C117.174 9.5357 117.439 9.44089 117.78 9.44089C118.122 9.44089 118.387 9.5357 118.577 9.72533C118.767 9.91496 118.861 10.1804 118.861 10.5218V23.9191C118.861 24.2604 118.767 24.5259 118.577 24.7156C118.387 24.9052 118.122 25 117.78 25ZM135.388 25C134.383 25 133.482 24.763 132.686 24.2889C131.908 23.8148 131.292 23.1701 130.837 22.3547C130.382 21.5203 130.154 20.5721 130.154 19.5102V5.60089C130.154 5.27852 130.249 5.01303 130.438 4.80444C130.647 4.59585 130.913 4.49155 131.235 4.49155C131.557 4.49155 131.823 4.59585 132.031 4.80444C132.24 5.01303 132.344 5.27852 132.344 5.60089V19.5102C132.344 20.4773 132.629 21.2738 133.198 21.8996C133.766 22.5064 134.497 22.8098 135.388 22.8098H136.156C136.459 22.8098 136.706 22.9141 136.895 23.1227C137.085 23.3313 137.18 23.5967 137.18 23.9191C137.18 24.2415 137.066 24.507 136.838 24.7156C136.611 24.9052 136.326 25 135.985 25H135.388ZM128.305 11.9156C128.021 11.9156 127.784 11.8302 127.594 11.6596C127.404 11.4699 127.31 11.2424 127.31 10.9769C127.31 10.6924 127.404 10.4649 127.594 10.2942C127.784 10.1046 128.021 10.0098 128.305 10.0098H135.558C135.843 10.0098 136.08 10.1046 136.27 10.2942C136.459 10.4649 136.554 10.6924 136.554 10.9769C136.554 11.2424 136.459 11.4699 136.27 11.6596C136.08 11.8302 135.843 11.9156 135.558 11.9156H128.305ZM147.174 25.1422C145.713 25.1422 144.405 24.8009 143.248 24.1182C142.092 23.4166 141.172 22.4684 140.489 21.2738C139.825 20.0791 139.494 18.7327 139.494 17.2347C139.494 15.7176 139.835 14.3618 140.518 13.1671C141.219 11.9724 142.167 11.0338 143.362 10.3511C144.557 9.64948 145.903 9.29866 147.401 9.29866C148.899 9.29866 150.236 9.64948 151.412 10.3511C152.606 11.0338 153.545 11.9724 154.228 13.1671C154.929 14.3618 155.29 15.7176 155.309 17.2347L154.427 17.9173C154.427 19.2827 154.105 20.5153 153.46 21.6151C152.834 22.696 151.971 23.5588 150.871 24.2036C149.79 24.8293 148.558 25.1422 147.174 25.1422ZM147.401 23.1511C148.501 23.1511 149.478 22.8951 150.331 22.3831C151.203 21.8711 151.886 21.1695 152.379 20.2782C152.891 19.368 153.147 18.3535 153.147 17.2347C153.147 16.0969 152.891 15.0824 152.379 14.1911C151.886 13.2999 151.203 12.5982 150.331 12.0862C149.478 11.5553 148.501 11.2898 147.401 11.2898C146.32 11.2898 145.344 11.5553 144.471 12.0862C143.599 12.5982 142.907 13.2999 142.395 14.1911C141.883 15.0824 141.627 16.0969 141.627 17.2347C141.627 18.3535 141.883 19.368 142.395 20.2782C142.907 21.1695 143.599 21.8711 144.471 22.3831C145.344 22.8951 146.32 23.1511 147.401 23.1511ZM154.199 25C153.877 25 153.612 24.9052 153.403 24.7156C153.194 24.507 153.09 24.2415 153.09 23.9191V19.0551L153.63 16.808L155.309 17.2347V23.9191C155.309 24.2415 155.204 24.507 154.996 24.7156C154.787 24.9052 154.522 25 154.199 25ZM162.498 25C161.74 25 161.057 24.7914 160.45 24.3742C159.862 23.957 159.398 23.3787 159.056 22.6391C158.734 21.8996 158.573 21.0462 158.573 20.0791V3.86578C158.573 3.5434 158.668 3.2874 158.857 3.09777C159.066 2.88918 159.331 2.78489 159.654 2.78489C159.976 2.78489 160.232 2.88918 160.422 3.09777C160.63 3.2874 160.735 3.5434 160.735 3.86578V20.0791C160.735 20.8945 160.896 21.5582 161.218 22.0702C161.56 22.5822 161.986 22.8382 162.498 22.8382H163.209C163.494 22.8382 163.721 22.9425 163.892 23.1511C164.063 23.3407 164.148 23.5967 164.148 23.9191C164.148 24.2415 164.025 24.507 163.778 24.7156C163.551 24.9052 163.247 25 162.868 25H162.498Z" fill="black"/>
<path fill-rule="evenodd" clip-rule="evenodd" d="M20.2503 2.96289H8.58307e-06L8.52644 9.63504H28.7767L20.2503 2.96289ZM8.52643 9.63505V25.4814L0 18.8093V2.96289L8.52643 9.63505Z" fill="#CCCCCC"/>
<path fill-rule="evenodd" clip-rule="evenodd" d="M8.52645 25.4814L28.7767 25.4814L20.2503 18.8093L1.90735e-05 18.8093L8.52645 25.4814ZM20.2503 18.8093L20.2503 2.96292L28.7767 9.63508L28.7767 25.4814L20.2503 18.8093Z" fill="black"/>
</svg>
