<svg width="21" height="21" viewBox="0 0 21 21" fill="none" xmlns="http://www.w3.org/2000/svg">
<path d="M10.5 1.75C5.67875 1.75 1.75 5.67875 1.75 10.5C1.75 15.3212 5.67875 19.25 10.5 19.25C15.3212 19.25 19.25 15.3212 19.25 10.5C19.25 5.67875 15.3212 1.75 10.5 1.75ZM14.3062 13.6237C14.1837 13.8337 13.965 13.9475 13.7375 13.9475C13.6237 13.9475 13.51 13.9212 13.405 13.8512L10.6925 12.2325C10.0187 11.83 9.52 10.9462 9.52 10.1675V6.58C9.52 6.22125 9.8175 5.92375 10.1762 5.92375C10.535 5.92375 10.8325 6.22125 10.8325 6.58V10.1675C10.8325 10.4825 11.095 10.9462 11.3662 11.1037L14.0787 12.7225C14.3937 12.9062 14.4987 13.3087 14.3062 13.6237Z" fill="#0C1E33"/>
</svg>
