<svg width="20" height="20" viewBox="0 0 20 20" fill="none" xmlns="http://www.w3.org/2000/svg">
<path d="M5.91997 11.4699C7.32996 11.4699 8.45996 12.6109 8.45996 14.0309V17.44C8.45996 18.85 7.32996 20 5.91997 20H2.53999C1.13999 20 0 18.85 0 17.44V14.0309C0 12.6109 1.13999 11.4699 2.53999 11.4699H5.91997ZM17.46 11.4699C18.86 11.4699 20 12.6109 20 14.0309V17.44C20 18.85 18.86 20 17.46 20H14.08C12.67 20 11.54 18.85 11.54 17.44V14.0309C11.54 12.6109 12.67 11.4699 14.08 11.4699H17.46ZM5.91997 0C7.32996 0 8.45996 1.15002 8.45996 2.56104V5.97009C8.45996 7.39011 7.32996 8.53013 5.91997 8.53013H2.53999C1.13999 8.53013 0 7.39011 0 5.97009V2.56104C0 1.15002 1.13999 0 2.53999 0H5.91997ZM17.46 0C18.86 0 20 1.15002 20 2.56104V5.97009C20 7.39011 18.86 8.53013 17.46 8.53013H14.08C12.67 8.53013 11.54 7.39011 11.54 5.97009V2.56104C11.54 1.15002 12.67 0 14.08 0H17.46Z" fill="black"/>
</svg>
