<svg width="21" height="21" viewBox="0 0 21 21" fill="none" xmlns="http://www.w3.org/2000/svg">
<path d="M18.0425 7.39375C17.1238 3.35125 13.5975 1.53125 10.5 1.53125C10.5 1.53125 10.5 1.53125 10.4913 1.53125C7.40252 1.53125 3.86752 3.3425 2.94877 7.385C1.92502 11.9 4.69002 15.7238 7.19252 18.13C8.12002 19.0225 9.31002 19.4688 10.5 19.4688C11.69 19.4688 12.88 19.0225 13.7988 18.13C16.3013 15.7238 19.0663 11.9088 18.0425 7.39375ZM10.5 11.7775C8.97752 11.7775 7.74377 10.5438 7.74377 9.02125C7.74377 7.49875 8.97752 6.265 10.5 6.265C12.0225 6.265 13.2563 7.49875 13.2563 9.02125C13.2563 10.5438 12.0225 11.7775 10.5 11.7775Z" fill="#0C1E33"/>
</svg>
