<svg width="21" height="21" viewBox="0 0 21 21" fill="none" xmlns="http://www.w3.org/2000/svg">
<path d="M10.5 1.75C8.2075 1.75 6.34375 3.61375 6.34375 5.90625C6.34375 8.155 8.1025 9.975 10.395 10.0538C10.465 10.045 10.535 10.045 10.5875 10.0538C10.605 10.0538 10.6138 10.0538 10.6313 10.0538C10.64 10.0538 10.64 10.0538 10.6488 10.0538C12.8888 9.975 14.6475 8.155 14.6563 5.90625C14.6563 3.61375 12.7925 1.75 10.5 1.75Z" fill="#0C1E33"/>
<path d="M14.945 12.3813C12.5037 10.7538 8.52247 10.7538 6.06372 12.3813C4.95247 13.125 4.33997 14.1313 4.33997 15.2075C4.33997 16.2838 4.95247 17.2813 6.05497 18.0163C7.27997 18.8388 8.88997 19.25 10.5 19.25C12.11 19.25 13.72 18.8388 14.945 18.0163C16.0475 17.2725 16.66 16.275 16.66 15.19C16.6512 14.1138 16.0475 13.1163 14.945 12.3813Z" fill="#0C1E33"/>
</svg>
