<?xml version="1.0" encoding="UTF-8"?>
<svg version="1.1" xmlns="http://www.w3.org/2000/svg" width="200%" height="200%" viewBox="0 0 1900 357" preserveAspectRatio="xMidYMid meet">
<path d="M0 0 C1.30756256 -0.00087616 2.61512512 -0.00175232 3.96231079 -0.00265503 C7.54509942 -0.00437661 11.12668283 0.03089691 14.70919132 0.07278872 C18.45407563 0.11029713 22.1989876 0.11382111 25.94403076 0.12094116 C33.03444071 0.1395899 40.12429558 0.18882657 47.21446109 0.2490381 C55.28687312 0.31610297 63.35931166 0.34909206 71.43193293 0.37921071 C88.03666179 0.44192624 104.64079677 0.54866947 121.24511719 0.68115234 C122.89511719 3.65115234 124.54511719 6.62115234 126.24511719 9.68115234 C128.47261719 9.46458984 128.47261719 9.46458984 130.74511719 9.24365234 C131.58042969 9.16244141 132.41574219 9.08123047 133.27636719 8.99755859 C135.4586856 8.76496939 137.63557212 8.47990229 139.80761719 8.16552734 C160.78579209 5.53831246 182.1174481 6.95786934 200.24511719 18.68115234 C213.4281249 28.99224979 219.89805092 42.91252138 222.86621094 59.06005859 C226.98378236 98.41045768 211.77391158 134.7560508 193.30151367 168.61010742 C192.12817034 170.7830485 192.12817034 170.7830485 191.24511719 173.68115234 C192.43167481 175.97801068 193.66541801 178.07594791 195.05761719 180.24365234 C195.90096908 181.60817675 196.74202643 182.97412138 197.58105469 184.34130859 C198.24186035 185.41276123 198.24186035 185.41276123 198.91601562 186.50585938 C220.82317483 222.36052295 239.44460862 268.40594545 230.21777344 311.06396484 C226.31593827 325.57440404 218.47006787 338.6270238 205.62011719 346.80615234 C192.64199299 354.17158247 179.48872365 357.07505798 164.68261719 356.99365234 C163.64411621 356.99018799 162.60561523 356.98672363 161.53564453 356.9831543 C148.78497036 356.80581666 136.30648495 354.95414947 124.24511719 350.68115234 C123.93574219 351.46490234 123.62636719 352.24865234 123.30761719 353.05615234 C122.24511719 355.68115234 122.24511719 355.68115234 121.24511719 357.68115234 C77.02511719 357.68115234 32.80511719 357.68115234 -12.75488281 357.68115234 C-14.40488281 354.71115234 -16.05488281 351.74115234 -17.75488281 348.68115234 C-22.77640608 349.24518386 -27.51975932 350.08175604 -32.44238281 351.24365234 C-52.65252024 355.3800404 -77.09738124 355.266439 -95.22753906 344.44287109 C-111.36459221 333.19432245 -118.95276933 318.96540772 -122.44238281 299.93115234 C-125.76855693 265.32478755 -113.63764456 231.83858431 -97.75488281 201.68115234 C-97.22797852 200.66867432 -97.22797852 200.66867432 -96.69042969 199.63574219 C-95.63420594 197.60620156 -94.57145004 195.58027441 -93.50488281 193.55615234 C-93.18777344 192.95246826 -92.87066406 192.34878418 -92.54394531 191.72680664 C-90.98702615 188.8112629 -89.39549396 186.20633065 -87.39550781 183.56396484 C-85.4470625 180.8715348 -85.4470625 180.8715348 -86.22753906 178.29833984 C-86.7315625 177.43466797 -87.23558594 176.57099609 -87.75488281 175.68115234 C-88.06538574 175.1181543 -88.37588867 174.55515625 -88.69580078 173.97509766 C-89.83858573 171.90528724 -91.01605204 169.85706835 -92.19238281 167.80615234 C-111.83833959 132.88925477 -131.66624543 87.5858143 -121.12988281 46.68115234 C-115.92663531 29.5743351 -106.75149724 16.68468988 -90.84082031 8.11083984 C-67.47900007 -2.40512776 -40.85936432 0.49361803 -16.75488281 6.68115234 C-16.159487 5.21722549 -16.159487 5.21722549 -15.55206299 3.72372437 C-12.05087473 -1.44221004 -5.58876891 -0.09733349 0 0 Z " fill="#D5FEFB" transform="translate(166.7548828125,-0.68115234375)"/>
<path d="M0 0 C3.96835143 3.55751034 6.57846989 7.74593565 9.4375 12.1875 C21.12643904 30.01154756 34.64338805 46.27609167 49 62 C50.26070312 63.39992188 50.26070312 63.39992188 51.546875 64.828125 C60.13621582 74.335231 68.96070222 83.79184781 78.74609375 92.0859375 C80.59253564 93.65397307 82.41090044 95.24399941 84.22265625 96.8515625 C101.82870188 112.41100018 120.82059797 126.9822379 141.10888672 138.88818359 C142.4812437 139.69501469 143.84954654 140.50875423 145.21533203 141.32666016 C165.51935091 153.46470907 186.36364821 163.0911968 209 170 C208.45276317 173.37462715 207.9451 175.08235 206 178 C203.66117668 178.36914349 203.66117668 178.36914349 200.67233276 178.36076355 C199.54208679 178.36488754 198.41184082 178.36901154 197.24734497 178.3732605 C196.00153656 178.36247467 194.75572815 178.35168884 193.47216797 178.34057617 C192.16489746 178.34101425 190.85762695 178.34145233 189.51074219 178.34190369 C185.91994317 178.34276654 182.32944311 178.32509427 178.73871374 178.30418181 C174.98843229 178.28546307 171.23814444 178.28366838 167.48782349 178.28010559 C160.38338075 178.27077095 153.27907605 178.2461381 146.17469418 178.21605712 C138.08775947 178.18255713 130.00081826 178.1660382 121.91383147 178.15097082 C105.27580449 178.11958968 88.63792528 178.06619944 72 178 C70.35 175.03 68.7 172.06 67 169 C61.97847673 169.56403151 57.23512349 170.40060369 52.3125 171.5625 C32.10236258 175.69888806 7.65750157 175.58528665 -10.47265625 164.76171875 C-26.6097094 153.51317011 -34.19788651 139.28425537 -37.6875 120.25 C-41.01546696 85.6249821 -28.86260676 52.1809983 -13 22 C-12.29783479 20.64080177 -11.59601501 19.28142505 -10.89453125 17.921875 C-7.63520411 11.65662279 -4.35982514 5.58602596 0 0 Z " fill="#F4B0FE" transform="translate(82,179)"/>
<path d="M0 0 C2.33882332 -0.36914349 2.33882332 -0.36914349 5.32766724 -0.36076355 C6.45791321 -0.36488754 7.58815918 -0.36901154 8.75265503 -0.3732605 C10.62136765 -0.35708176 10.62136765 -0.35708176 12.52783203 -0.34057617 C13.83510254 -0.34101425 15.14237305 -0.34145233 16.48925781 -0.34190369 C20.08005683 -0.34276654 23.67055689 -0.32509427 27.26128626 -0.30418181 C31.01156771 -0.28546307 34.76185556 -0.28366838 38.51217651 -0.28010559 C45.61661925 -0.27077095 52.72092395 -0.2461381 59.82530582 -0.21605712 C67.91224053 -0.18255713 75.99918174 -0.1660382 84.08616853 -0.15097082 C100.72419551 -0.11958968 117.36207472 -0.06619944 134 0 C135.65 2.97 137.3 5.94 139 9 C141.2275 8.7834375 141.2275 8.7834375 143.5 8.5625 C144.3353125 8.48128906 145.170625 8.40007813 146.03125 8.31640625 C148.21356841 8.08381705 150.39045493 7.79874994 152.5625 7.484375 C173.5406749 4.85716012 194.87233091 6.276717 213 18 C226.18300771 28.31109745 232.65293373 42.23136903 235.62109375 58.37890625 C239.39688233 94.46298882 226.85794086 128.29233971 210.5625 159.875 C210.05444824 160.86226074 209.54639648 161.84952148 209.02294922 162.86669922 C208.30196045 164.22819092 208.30196045 164.22819092 207.56640625 165.6171875 C206.93134155 166.81770752 206.93134155 166.81770752 206.28344727 168.04248047 C205 170 205 170 202 172 C200.87411277 170.45898116 199.74937289 168.91712409 198.625 167.375 C197.88894531 166.36566406 197.15289062 165.35632813 196.39453125 164.31640625 C194.80824257 162.13014591 193.24489524 159.92998521 191.69921875 157.71484375 C183.2140477 145.58915287 173.99190878 134.06905547 163.98046875 123.1640625 C162.09159671 121.10008792 160.2605374 118.99709746 158.4375 116.875 C155.3933597 113.37176662 152.14480368 110.12291051 148.8359375 106.87109375 C147 105 147 105 144.5 101.9375 C141.9048905 98.88824633 139.13477187 96.43088801 136.09375 93.84375 C134.02155257 92.01897913 132.10765659 90.10811254 130.1875 88.125 C126.34796529 84.23317591 122.22434662 80.81891133 117.9609375 77.40234375 C115.43286615 75.35120407 112.96521567 73.24722603 110.50952148 71.1105957 C97.00561971 59.4228733 82.15597295 49.40776702 67 40 C65.99018066 39.37230713 65.99018066 39.37230713 64.95996094 38.73193359 C43.60496495 25.56866887 21.12406831 14.97286464 -3 8 C-2.45276317 4.62537285 -1.9451 2.91765 0 0 Z " fill="#F4B0FE" transform="translate(154,0)"/>
<path d="M0 0 C0.92522461 0.03552979 1.85044922 0.07105957 2.80371094 0.10766602 C6.34486577 0.23941457 9.88613541 0.36320448 13.42773438 0.48217773 C14.94021183 0.53449114 16.45259332 0.58968367 17.96484375 0.64819336 C30.03373538 1.11207121 41.94749248 0.75584323 54 0 C54.31255486 0.98191063 54.31255486 0.98191063 54.63142395 1.98365784 C64.18589453 31.97968082 73.83121582 61.93561498 84.125 91.6875 C84.50129547 92.77781525 84.87759094 93.86813049 85.26528931 94.9914856 C88.67407599 104.85347647 92.12305073 114.69672815 95.77636719 124.47119141 C96.00859167 125.0932953 96.24081615 125.71539919 96.48007774 126.35635471 C97.6108752 129.38219016 98.74869152 132.40511982 99.89602661 135.42472839 C100.3014267 136.50249039 100.70682678 137.58025238 101.12451172 138.69067383 C101.48696991 139.64500809 101.8494281 140.59934235 102.22286987 141.58259583 C103 144 103 144 103 147 C103.66 147 104.32 147 105 147 C105.13159515 146.27297882 105.26319031 145.54595764 105.39877319 144.79690552 C105.96381813 142.16831796 106.7049126 139.77459621 107.61962891 137.24951172 C107.95211639 136.32588837 108.28460388 135.40226501 108.62716675 134.45065308 C108.98996735 133.45373444 109.35276794 132.4568158 109.7265625 131.4296875 C110.10604034 130.37758087 110.48551819 129.32547424 110.87649536 128.2414856 C111.69536045 125.97152128 112.51567534 123.70207955 113.33728027 121.43310547 C115.52305216 115.39358712 117.69486053 109.3490522 119.8671875 103.3046875 C120.30567017 102.08513367 120.74415283 100.86557983 121.19592285 99.60906982 C132.94631498 66.90021917 144.10081951 34.00126996 155 1 C155.58116577 1.00261841 156.16233154 1.00523682 156.7611084 1.00793457 C171.63871877 1.09823935 171.63871877 1.09823935 186.5 0.5 C194.02084164 0.06449636 201.46355078 -0.08971963 209 0 C208.67 3.96 208.34 7.92 208 12 C204.12230643 13.55107743 200.36163441 14.857345 196.375 16.0625 C193.2381236 17.01361241 190.10970552 17.96343149 187 19 C181.57165854 31.11382966 185.38259668 49.21684191 186.2421875 62.16796875 C186.37227522 64.17985261 186.50199782 66.1917601 186.63137817 68.20368958 C186.90223204 72.39846159 187.17656078 76.59298644 187.45361328 80.78735352 C187.80440057 86.10026012 188.14786069 91.41360801 188.48882866 96.72715282 C188.75575517 100.87748946 189.02596129 105.02760772 189.29715347 109.17766762 C189.42472077 111.13355516 189.55149034 113.08949493 189.67736435 115.04549217 C190.33017066 125.15325945 191.06506229 135.24766638 192.00439453 145.33325195 C192.08187864 146.17952495 192.15936275 147.02579794 192.23919487 147.89771557 C193.35213876 162.18413287 193.35213876 162.18413287 199 175 C201.9615696 176.4807848 204.83506295 176.35314037 208.125 176.5625 C209.40632812 176.64628906 210.68765625 176.73007813 212.0078125 176.81640625 C212.99523437 176.87699219 213.98265625 176.93757812 215 177 C214.85737588 178.5627962 214.71074489 180.12522696 214.5625 181.6875 C214.44068359 182.99267578 214.44068359 182.99267578 214.31640625 184.32421875 C214.00902326 186.9236922 213.52749691 189.43760396 213 192 C212.14696289 191.98952637 211.29392578 191.97905273 210.41503906 191.96826172 C190.82034952 191.76114632 171.53450998 192.27862697 152 194 C152.33 189.38 152.66 184.76 153 180 C154.7634375 179.38125 154.7634375 179.38125 156.5625 178.75 C163.73848138 176.1982122 163.73848138 176.1982122 169.1799469 171.22358704 C173.49958365 159.51082323 169.06225585 141.39776827 168.06640625 129.23828125 C167.86663982 126.75444031 167.66725962 124.27056828 167.46824646 121.78666687 C167.05225855 116.60984609 166.63244853 111.43335443 166.2097168 106.25708008 C165.66749084 99.61522132 165.13366659 92.97273248 164.60249424 86.32998371 C164.19273601 81.21437881 163.77923441 76.09908209 163.3645153 70.98387718 C163.16614781 68.53307431 162.96880327 66.08218841 162.77249336 63.63121986 C162.49861141 60.22038452 162.21985202 56.80998327 161.93969727 53.3996582 C161.81885521 51.87790482 161.81885521 51.87790482 161.6955719 50.32540894 C161.61846985 49.39913193 161.5413678 48.47285492 161.46192932 47.51850891 C161.39648202 46.71353124 161.33103472 45.90855356 161.26360416 45.07918262 C161.04417009 42.80851838 161.04417009 42.80851838 160 40 C159.67198395 40.90674217 159.67198395 40.90674217 159.33734131 41.83180237 C150.79528923 65.44375185 142.25159099 89.05511786 133.6796875 112.65625 C133.25664337 113.82121506 132.83359924 114.98618011 132.3977356 116.18644714 C130.31452041 121.92078582 128.22744082 127.65367461 126.13330078 133.3840332 C122.60411349 143.04658775 119.08521824 152.71043706 115.68643188 162.41978455 C114.32784558 166.29732758 112.95429229 170.16948385 111.57928467 174.04122925 C110.95058529 175.82581466 110.32965285 177.61315824 109.71710205 179.40335083 C108.8853303 181.8334672 108.02788229 184.25300205 107.1640625 186.671875 C106.93050049 187.37837692 106.69693848 188.08487885 106.45629883 188.81278992 C105.15840447 192.36010768 104.19457483 193.87343957 100.98974609 195.95800781 C98 197 98 197 95 197 C89.5313114 182.26966283 84.21488299 167.48731755 78.9375 152.6875 C78.07269954 150.26472017 77.20787142 147.84195022 76.34301758 145.41918945 C71.56342371 132.02407753 66.79897245 118.62364051 62.046875 105.21875 C61.8009215 104.52505625 61.55496799 103.8313625 61.30156136 103.11664772 C58.89993933 96.34301447 56.49911599 89.56910207 54.1022234 82.79379368 C50.08425504 71.43767539 46.06402536 60.08249898 41.92578125 48.76953125 C41.4960627 47.58746346 41.4960627 47.58746346 41.05766296 46.3815155 C39.98078832 42.92750622 39.98078832 42.92750622 38 40 C36.84330477 53.85688934 35.6871006 67.71381957 34.53144932 81.57079601 C33.99473876 88.00611881 33.45787526 94.44142877 32.9206543 100.87670898 C32.40157396 107.09475509 31.88290574 113.31283545 31.3645153 119.5309391 C31.16732191 121.89542155 30.96998359 124.25989192 30.77249336 126.62434959 C26.39925235 151.26215085 26.39925235 151.26215085 29.47265625 174.26171875 C33.12907065 176.77656327 36.40293186 176.67070025 40.75 176.75 C41.54277344 176.77964844 42.33554687 176.80929688 43.15234375 176.83984375 C45.10102094 176.91027787 47.05051495 176.95743482 49 177 C48.88416889 178.54238266 48.75683428 180.08390272 48.625 181.625 C48.55539062 182.48351562 48.48578125 183.34203125 48.4140625 184.2265625 C47.95323683 187.31322502 47.05718176 190.06911399 46 193 C44.70707031 192.9278125 43.41414062 192.855625 42.08203125 192.78125 C24.79221672 191.84220258 8.2317677 192.26909598 -9 194 C-8.505 186.575 -8.505 186.575 -8 179 C-5.6796875 178.4121875 -5.6796875 178.4121875 -3.3125 177.8125 C1.34009261 176.39306497 4.05056575 175.0219558 7 171 C10.46414344 163.5947496 11.06237753 155.89302152 11.890625 147.859375 C12.0566775 146.3226472 12.22355071 144.7860079 12.39117432 143.24945068 C12.84554493 139.0545061 13.28558788 134.85817241 13.72219849 130.66134644 C14.00327091 127.96866461 14.28803438 125.27639753 14.57397461 122.58422852 C15.79197358 111.11175598 16.97951275 99.63641162 18.14697266 88.15869141 C18.65355517 83.1820933 19.16931125 78.20648705 19.68688583 73.23102188 C20.09174784 69.32270023 20.48982262 65.41370787 20.88611603 61.50450897 C21.07335523 59.66894486 21.26305881 57.83363008 21.45549774 55.99860382 C24.69454039 36.70558059 24.69454039 36.70558059 20 19 C13.91777745 14.72565677 6.19056888 13.92467552 -1 13 C-2.51403812 8.15507803 -1.36602172 4.7408989 0 0 Z " fill="#000000" transform="translate(629,78)"/>
<path d="M0 0 C9.80071526 10.31446243 12.19795783 24.24235656 12.03662109 38.02294922 C11.43792512 56.04491986 1.79866338 71.57661145 -10.9375 83.8125 C-23.68176001 94.85622225 -39.18593397 101.41164519 -56.1171875 101.28515625 C-56.8411673 101.2837413 -57.56514709 101.28232635 -58.31106567 101.28086853 C-60.60325407 101.27531075 -62.89534157 101.26276633 -65.1875 101.25 C-66.74999858 101.24497953 -68.31249871 101.24041759 -69.875 101.23632812 C-73.68753835 101.22535519 -77.50000212 101.2081201 -81.3125 101.1875 C-81.21989778 107.8955101 -81.11254989 114.60317 -80.99511719 121.31079102 C-80.95691659 123.59101049 -80.92204838 125.87128839 -80.890625 128.15161133 C-80.84478076 131.43592154 -80.78681786 134.71983262 -80.7265625 138.00390625 C-80.71501129 139.01771866 -80.70346008 140.03153107 -80.69155884 141.07606506 C-80.58039934 146.44932837 -80.30701486 151.16348559 -78.3125 156.1875 C-74.96130481 158.42163013 -73.8947245 158.42597762 -69.98828125 158.3828125 C-68.96025391 158.37636719 -67.93222656 158.36992187 -66.87304688 158.36328125 C-65.80119141 158.34652344 -64.72933594 158.32976562 -63.625 158.3125 C-62.54154297 158.30347656 -61.45808594 158.29445312 -60.34179688 158.28515625 C-57.6651429 158.2615734 -54.98893203 158.22866126 -52.3125 158.1875 C-52.0728057 163.82031599 -52.92720179 168.73288831 -54.3125 174.1875 C-55.657677 174.17178955 -55.657677 174.17178955 -57.0300293 174.15576172 C-80.53764734 173.9206409 -103.85354584 174.68440912 -127.3125 176.1875 C-126.6525 171.2375 -125.9925 166.2875 -125.3125 161.1875 C-124.27609375 160.88457031 -123.2396875 160.58164062 -122.171875 160.26953125 C-120.8018069 159.84724999 -119.43203013 159.42402273 -118.0625 159 C-117.38058594 158.80341797 -116.69867187 158.60683594 -115.99609375 158.40429688 C-111.25656493 156.90881448 -108.6664902 155.59842925 -106.3125 151.1875 C-104.29742069 142.78225244 -104.02420175 134.42123926 -104.05371094 125.8190918 C-104.0502063 124.54111221 -104.04670166 123.26313263 -104.04309082 121.94642639 C-104.03406766 118.47979581 -104.03746764 115.01328587 -104.04384899 111.54665351 C-104.04895628 107.90111988 -104.04420503 104.25559573 -104.04107666 100.61006165 C-104.03745299 94.496777 -104.04219632 88.38354092 -104.05175781 82.27026367 C-104.0626637 75.21622682 -104.05909491 68.16230541 -104.048105 61.1082713 C-104.03901547 55.02897936 -104.03775426 48.94972206 -104.04298234 42.87042552 C-104.04608976 39.24916078 -104.04654482 35.62795026 -104.03990936 32.00668907 C-104.03303389 27.9740354 -104.04257577 23.9415797 -104.05371094 19.90893555 C-104.04966248 18.71865753 -104.04561401 17.52837952 -104.04144287 16.30203247 C-104.07069283 10.58160152 -104.16705624 5.5340297 -106.3125 0.1875 C-110.04641564 -2.23987678 -113.76599498 -2.02556071 -118.125 -1.9375 C-119.28644531 -1.91945313 -120.44789063 -1.90140625 -121.64453125 -1.8828125 C-122.52496094 -1.85960938 -123.40539062 -1.83640625 -124.3125 -1.8125 C-125.51470203 -5.34344302 -125.10782349 -7.94148982 -124.375 -11.5625 C-124.08302734 -13.03976563 -124.08302734 -13.03976563 -123.78515625 -14.546875 C-123.62917969 -15.29453125 -123.47320313 -16.0421875 -123.3125 -16.8125 C-122.41982422 -16.80726318 -121.52714844 -16.80202637 -120.60742188 -16.79663086 C-102.68505692 -16.70628714 -84.79665741 -16.79878561 -66.88476562 -17.45678711 C-41.93825093 -18.37316969 -19.31317659 -17.80545648 0 0 Z M-75.3125 -1.8125 C-77.47047607 1.42446411 -77.616954 2.5926217 -77.81494141 6.36376953 C-77.8748526 7.42403351 -77.93476379 8.48429749 -77.99649048 9.57669067 C-78.05178925 10.72958588 -78.10708801 11.88248108 -78.1640625 13.0703125 C-78.22782074 14.27195038 -78.29157898 15.47358826 -78.35726929 16.7116394 C-78.49097261 19.27205081 -78.62011945 21.83270352 -78.74511719 24.39355469 C-78.9330282 28.22140699 -79.13710637 32.04811891 -79.34375 35.875 C-80.1651115 51.657588 -80.5018746 67.3846532 -80.3125 83.1875 C-75.83610078 83.89387337 -71.35610153 84.57415442 -66.875 85.25 C-64.98491211 85.54874023 -64.98491211 85.54874023 -63.05664062 85.85351562 C-51.20392409 87.61749694 -40.63404378 87.6092846 -30.6328125 80.203125 C-21.33107546 72.19866286 -16.23325505 63.32941583 -14.3125 51.1875 C-13.37515999 37.12558324 -13.80427003 23.4143537 -23.3125 12.1875 C-33.11012276 1.90689584 -47.24868187 -1.58114846 -61.08203125 -2.015625 C-62.76296234 -2.03662024 -64.44396958 -2.05216315 -66.125 -2.0625 C-66.98287109 -2.083125 -67.84074219 -2.10375 -68.72460938 -2.125 C-69.9534082 -2.13273437 -69.9534082 -2.13273437 -71.20703125 -2.140625 C-71.94800049 -2.1499707 -72.68896973 -2.15931641 -73.45239258 -2.16894531 C-74.06622803 -2.05131836 -74.68006348 -1.93369141 -75.3125 -1.8125 Z " fill="#000000" transform="translate(1144.3125,95.8125)"/>
<path d="M0 0 C9.11123332 -0.09339967 18.22229744 -0.16411489 27.33390808 -0.20724869 C31.56652955 -0.22796901 35.79881934 -0.25599512 40.03125 -0.30175781 C44.12915217 -0.34577979 48.22673891 -0.36925343 52.32485962 -0.37950897 C53.87469436 -0.38680082 55.42451529 -0.40103386 56.97421265 -0.42292023 C73.38770501 -0.64513749 90.33445798 1.64288433 102.875 13.1875 C109.831492 20.54958252 112.31313777 29.6489152 112.1484375 39.61328125 C111.31998992 52.93384632 104.64102581 63.08273392 95 72 C89.69242768 75.94831599 84.00844617 79.23936257 78 82 C83.10487492 90.09096361 88.30052854 98.11900634 93.57861328 106.09790039 C94.4426107 107.40723886 95.3032953 108.71876942 96.16064453 110.0324707 C107.12288644 127.84910623 107.12288644 127.84910623 124.6875 137.6015625 C126.45097021 137.93722302 128.2207242 138.24218469 129.99609375 138.5078125 C130.98802734 138.75144531 130.98802734 138.75144531 132 139 C133.3609623 141.7219246 132.70366248 143.1831957 132.0625 146.125 C131.77052734 147.49011719 131.77052734 147.49011719 131.47265625 148.8828125 C131.23869141 149.93082031 131.23869141 149.93082031 131 151 C128.00051609 151.33865141 125.00055074 151.67105073 122 152 C121.16082031 152.09539062 120.32164063 152.19078125 119.45703125 152.2890625 C109.63638311 153.35486927 102.50729475 153.65461931 94 148 C87.07556004 141.52723716 82.30946638 134.04431648 77.75 125.8125 C77.10579102 124.69496338 76.46158203 123.57742676 75.79785156 122.42602539 C72.56559474 116.78467995 69.54205104 111.12852735 66.8125 105.2265625 C66.29461914 104.16719482 65.77673828 103.10782715 65.24316406 102.01635742 C64.27610765 100.02231745 63.36712309 97.99862389 62.53027344 95.9465332 C60.94703879 92.76270638 59.91133127 91.08183647 57 89 C50.7888255 87.52735056 44.33711801 87.78878905 38 88 C38.09358014 93.90848268 38.19968486 99.81655781 38.31738281 105.72460938 C38.35565669 107.73431238 38.39051236 109.74408351 38.421875 111.75390625 C38.46755991 114.6434768 38.52554887 117.53257896 38.5859375 120.421875 C38.59748871 121.31992859 38.60903992 122.21798218 38.62094116 123.14324951 C38.64081085 123.98381897 38.66068054 124.82438843 38.68115234 125.69042969 C38.69447601 126.42767273 38.70779968 127.16491577 38.7215271 127.92449951 C39.04579237 130.34129741 39.69606197 131.94303958 41 134 C45.52309313 136.04616118 50.1119224 136.4943368 55 137 C56.08828929 140.26486787 55.89901381 141.36990083 55.125 144.625 C54.85042969 145.81996094 54.85042969 145.81996094 54.5703125 147.0390625 C54 149 54 149 53 150 C51.1903226 150.12330088 49.37592163 150.17790183 47.56225586 150.20532227 C46.40112778 150.22526749 45.23999969 150.24521271 44.04368591 150.26576233 C42.780168 150.28247482 41.51665009 150.29918732 40.21484375 150.31640625 C38.92888809 150.33718735 37.64293243 150.35796844 36.31800842 150.37937927 C32.89364096 150.43466176 29.4692125 150.48404361 26.04473877 150.53222656 C22.55255686 150.58239665 19.0604639 150.6381061 15.56835938 150.69335938 C8.71231498 150.80101642 1.8561882 150.90193283 -5 151 C-4.34 146.38 -3.68 141.76 -3 137 C-0.00520833 136.34895833 2.98958333 135.69791667 5.984375 135.046875 C9.49144537 133.82939461 10.85564342 133.03300886 13 130 C15.04420345 123.67620093 15.28829389 117.37594729 15.25878906 110.78613281 C15.2622937 109.80773941 15.26579834 108.82934601 15.26940918 107.82130432 C15.27815034 104.61517056 15.27240619 101.40926067 15.265625 98.203125 C15.2669734 95.96352089 15.2689154 93.72391707 15.27142334 91.48431396 C15.27436391 86.80413001 15.27010969 82.12402267 15.26074219 77.44384766 C15.24932189 71.44605066 15.25593023 65.44843216 15.26788712 59.45064163 C15.275112 54.83185479 15.27281533 50.21311032 15.26763153 45.5943222 C15.26629815 43.38233163 15.26793185 41.1703372 15.27259064 38.95835114 C15.27766902 35.87089316 15.26992817 32.78372542 15.25878906 29.69628906 C15.26283752 28.78398026 15.26688599 27.87167145 15.27105713 26.93171692 C15.26528445 20.71402928 15.26528445 20.71402928 13 15 C9.85069107 13.95023036 7.61185544 13.89868405 4.3125 13.9375 C3.31863281 13.94652344 2.32476563 13.95554688 1.30078125 13.96484375 C0.54152344 13.97644531 -0.21773437 13.98804688 -1 14 C-2.15051639 10.4333992 -1.87041395 7.87429996 -1.0234375 4.30859375 C-0.83442871 3.50091553 -0.64541992 2.6932373 -0.45068359 1.86108398 C-0.30195801 1.24692627 -0.15323242 0.63276855 0 0 Z M42 14 C40.60675801 16.78648398 40.67126826 19.27595437 40.46484375 22.38671875 C40.40024208 23.35572868 40.40024208 23.35572868 40.33433533 24.34431458 C40.19625796 26.45838485 40.06615708 28.57283673 39.9375 30.6875 C39.89264465 31.40309082 39.84778931 32.11868164 39.80157471 32.85595703 C39.01290427 45.58017272 38.77051826 58.25101421 39 71 C46.20776101 74.6038805 58.10977309 74.95344755 65.77734375 73.07421875 C74.7540264 68.78805496 81.71030195 62.35275577 85.32421875 53.0234375 C88.62841159 43.12995837 86.91063138 34.93768801 82.4375 25.8125 C76.49496245 18.9557259 67.8795117 15.25775166 59 14 C53.33269205 13.69432135 47.66952271 13.82054266 42 14 Z " fill="#000000" transform="translate(1356,120)"/>
<path d="M0 0 C13.13282057 10.94028835 21.29844681 28.09424571 23 45 C24.60734982 71.14622371 19.97967102 93.91207898 2.36328125 114.0078125 C-12.30359136 129.36513703 -32.19374011 138.47667407 -53.4453125 139.203125 C-74.87139339 139.55980984 -92.60203 134.47866382 -108.6875 119.8125 C-123.39716765 104.22095779 -127.72276604 83.29635495 -127.25 62.5625 C-126.35175363 41.36388556 -117.99487642 22.02033461 -103 7 C-102.31292969 6.30132812 -101.62585937 5.60265625 -100.91796875 4.8828125 C-74.0488443 -20.74006313 -29.13698857 -21.96356677 0 0 Z M-87.84765625 16.9453125 C-99.86787021 32.13197668 -102.19773682 50.72030023 -100.7265625 69.48828125 C-98.69704738 86.39452511 -92.71073534 102.23580878 -80 114 C-69.76565166 121.46390373 -58.66160873 124.98082885 -46 124 C-32.74980265 121.77998013 -22.39422743 116.68107242 -14 106 C-1.51584202 87.29205292 -1.26567464 65.67067041 -5.49951172 44.24316406 C-8.39310389 31.2742251 -15.51446572 19.28179487 -26 11 C-46.34957957 -1.20974774 -70.8531746 -0.94739757 -87.84765625 16.9453125 Z " fill="#000000" transform="translate(1301,133)"/>
<path d="M0 0 C3.68687548 3.63978036 7.24479469 7.37301187 10.75 11.1875 C11.54204834 12.04613647 11.54204834 12.04613647 12.35009766 12.92211914 C15.39487695 16.22947489 18.39729312 19.56945701 21.375 22.9375 C28.99202014 31.42860442 37.06343423 39.75158423 45.78125 47.12109375 C47.61604323 48.67485351 49.42058297 50.25209233 51.21875 51.84765625 C68.8250767 67.40927027 87.81921277 81.981425 108.10888672 93.88818359 C109.4812437 94.69501469 110.84954654 95.50875423 112.21533203 96.32666016 C132.51935091 108.46470907 153.36364821 118.0911968 176 125 C175.45276317 128.37462715 174.9451 130.08235 173 133 C170.66117668 133.36914349 170.66117668 133.36914349 167.67233276 133.36076355 C166.54208679 133.36488754 165.41184082 133.36901154 164.24734497 133.3732605 C163.00153656 133.36247467 161.75572815 133.35168884 160.47216797 133.34057617 C159.16489746 133.34101425 157.85762695 133.34145233 156.51074219 133.34190369 C152.91994317 133.34276654 149.32944311 133.32509427 145.73871374 133.30418181 C141.98843229 133.28546307 138.23814444 133.28366838 134.48782349 133.28010559 C127.38338075 133.27077095 120.27907605 133.2461381 113.17469418 133.21605712 C105.08775947 133.18255713 97.00081826 133.1660382 88.91383147 133.15097082 C72.27580676 133.11958968 55.63792098 133.06680177 39 133 C37.74853621 130.49877871 36.49726296 127.99746239 35.24609375 125.49609375 C34.89752319 124.79947632 34.54895264 124.10285889 34.18981934 123.38513184 C15.56835808 86.15297941 -0.46015179 42.2419345 0 0 Z " fill="#FE8D01" transform="translate(115,224)"/>
<path d="M0 0 C2.33882332 -0.36914349 2.33882332 -0.36914349 5.32766724 -0.36076355 C6.45791321 -0.36488754 7.58815918 -0.36901154 8.75265503 -0.3732605 C10.62136765 -0.35708176 10.62136765 -0.35708176 12.52783203 -0.34057617 C13.83510254 -0.34101425 15.14237305 -0.34145233 16.48925781 -0.34190369 C20.08005683 -0.34276654 23.67055689 -0.32509427 27.26128626 -0.30418181 C31.01156771 -0.28546307 34.76185556 -0.28366838 38.51217651 -0.28010559 C45.61661925 -0.27077095 52.72092395 -0.2461381 59.82530582 -0.21605712 C67.91224053 -0.18255713 75.99918174 -0.1660382 84.08616853 -0.15097082 C100.72419324 -0.11958968 117.36207902 -0.06680177 134 0 C134.54926651 1.09925812 135.09853302 2.19851624 135.66444397 3.33108521 C136.39225606 4.78729584 137.12007524 6.24350292 137.84790039 7.69970703 C138.20907204 8.42257401 138.57024368 9.14544098 138.94235992 9.89021301 C140.76334497 13.53322184 142.59023677 17.17292919 144.43359375 20.8046875 C160.30347555 52.6898708 174.4420423 95.94894247 173 132 C168.6646685 127.72336738 164.48271562 123.3122592 160.3125 118.875 C159.60351562 118.12234863 158.89453125 117.36969727 158.1640625 116.59423828 C154.22207191 112.40003928 150.33390474 108.16801931 146.5 103.875 C143.16986662 100.1828956 139.72175916 96.86436747 135.91796875 93.66796875 C133.89707018 91.91048669 132.05048718 90.04844924 130.1875 88.125 C126.34796529 84.23317591 122.22434662 80.81891133 117.9609375 77.40234375 C115.43286615 75.35120407 112.96521567 73.24722603 110.50952148 71.1105957 C97.00561971 59.4228733 82.15597295 49.40776702 67 40 C65.99018066 39.37230713 65.99018066 39.37230713 64.95996094 38.73193359 C43.60496495 25.56866887 21.12406831 14.97286464 -3 8 C-2.45276317 4.62537285 -1.9451 2.91765 0 0 Z " fill="#FE8D01" transform="translate(154,0)"/>
<path d="M0 0 C0.63977783 0.00193359 1.27955566 0.00386719 1.9387207 0.00585938 C4.49686289 6.51275607 6.49911851 13.1033591 8.4230957 19.82226562 C9.11052109 22.19825305 9.79827935 24.57414419 10.48632812 26.94995117 C10.84536224 28.19287933 11.20439636 29.4358075 11.5743103 30.71640015 C17.51989088 51.28376661 23.62490891 71.79360516 30.1262207 92.19335938 C30.42951294 93.15138458 30.73280518 94.10940979 31.04528809 95.09646606 C36.59646679 117.73265646 36.59646679 117.73265646 49.3059082 135.39648438 C50.13348633 135.68007812 50.96106445 135.96367187 51.8137207 136.25585938 C52.68512695 136.56523437 53.5565332 136.87460938 54.4543457 137.19335938 C55.27418945 137.46148437 56.0940332 137.72960937 56.9387207 138.00585938 C58.7330957 138.62460937 58.7330957 138.62460937 60.5637207 139.25585938 C61.7393457 139.62710938 61.7393457 139.62710938 62.9387207 140.00585938 C62.79834549 141.81879026 62.65127181 143.63120368 62.5012207 145.44335938 C62.3794043 146.95736328 62.3794043 146.95736328 62.25512695 148.50195312 C61.9387207 151.00585938 61.9387207 151.00585938 60.9387207 152.00585938 C58.65083114 152.08203349 56.36059911 152.08881522 54.0715332 152.06835938 C52.62247779 152.05979836 51.17342177 152.05133881 49.72436523 152.04296875 C48.96271057 152.03676514 48.20105591 152.03056152 47.4163208 152.02416992 C35.50281867 151.93144582 23.66371609 152.01317512 11.77075195 152.78320312 C6.48967308 153.0900548 1.22632897 153.10084635 -4.0612793 153.00585938 C-5.18023971 148.27307124 -4.78848822 144.77311788 -4.0612793 140.00585938 C-3.12026367 139.89628906 -2.17924805 139.78671875 -1.2097168 139.67382812 C0.03551758 139.51527344 1.28075195 139.35671875 2.5637207 139.19335938 C3.79348633 139.04253906 5.02325195 138.89171875 6.2902832 138.73632812 C9.95888359 138.00182248 12.69110495 136.82952053 15.9387207 135.00585938 C16.5505114 127.28200179 14.31146211 120.80043599 11.9387207 113.50585938 C11.5571582 112.301875 11.1755957 111.09789062 10.7824707 109.85742188 C9.84471388 106.90348787 8.8965826 103.95332272 7.9387207 101.00585938 C-8.60506897 99.93810968 -24.58063605 100.18606136 -41.0612793 102.00585938 C-42.37754621 105.42108674 -43.68863256 108.83828002 -44.9987793 112.25585938 C-45.37196289 113.22394531 -45.74514648 114.19203125 -46.12963867 115.18945312 C-46.48735352 116.12402344 -46.84506836 117.05859375 -47.21362305 118.02148438 C-47.7085022 119.30974121 -47.7085022 119.30974121 -48.21337891 120.62402344 C-49.98899024 125.61189104 -50.48095034 129.71800428 -50.0612793 135.00585938 C-47.23466718 137.84255933 -45.04456151 138.39099429 -41.11206055 138.48242188 C-40.18200195 138.51335937 -39.25194336 138.54429687 -38.29370117 138.57617188 C-37.33012695 138.59421875 -36.36655273 138.61226562 -35.3737793 138.63085938 C-33.45309904 138.68163744 -31.53251186 138.73611891 -29.61206055 138.79492188 C-28.76297119 138.81248535 -27.91388184 138.83004883 -27.0390625 138.84814453 C-25.0612793 139.00585938 -25.0612793 139.00585938 -24.0612793 140.00585938 C-24.12539618 141.82153288 -24.26225406 143.63490797 -24.4362793 145.44335938 C-24.57163086 146.92642578 -24.57163086 146.92642578 -24.7097168 148.43945312 C-25.0612793 151.00585938 -25.0612793 151.00585938 -26.0612793 153.00585938 C-26.62484131 152.97556641 -27.18840332 152.94527344 -27.76904297 152.9140625 C-47.87021325 151.87678865 -67.9403653 151.89941684 -88.0612793 152.00585938 C-87.94745276 150.04684484 -87.81986805 148.08862557 -87.6862793 146.13085938 C-87.61666992 145.0403125 -87.54706055 143.94976562 -87.4753418 142.82617188 C-87.0612793 140.00585938 -87.0612793 140.00585938 -85.0612793 138.00585938 C-83.8237793 137.65523437 -82.5862793 137.30460938 -81.3112793 136.94335938 C-75.28156748 134.77477881 -72.78709449 129.34799347 -69.96459961 123.88208008 C-68.94029939 121.67268833 -67.99023616 119.44451392 -67.0612793 117.19335938 C-66.68285889 116.29327148 -66.30443848 115.39318359 -65.91455078 114.46582031 C-63.09073236 107.67343758 -60.40841656 100.82679781 -57.75585938 93.96606445 C-56.64794444 91.10089775 -55.52811725 88.24077673 -54.39990234 85.38354492 C-50.95025489 76.61487392 -47.61342697 67.81640234 -44.42704868 58.94893265 C-42.2938416 53.0229508 -40.10265422 47.11999536 -37.87992764 41.22703171 C-36.48106153 37.50943098 -35.1122821 33.78595479 -33.80789185 30.03405762 C-25.61379245 6.54424855 -25.61379245 6.54424855 -19.70233154 2.3203125 C-13.16172464 -0.51208347 -6.93145891 0.01326701 0 0 Z M-15.0612793 29.00585938 C-19.61008893 39.37681279 -23.42393899 50.01061641 -27.27441406 60.6550293 C-28.38548253 63.72570376 -29.50138908 66.79458926 -30.61791992 69.86328125 C-31.32458115 71.81044491 -32.03097159 73.75770687 -32.73706055 75.70507812 C-33.07135574 76.62471848 -33.40565094 77.54435883 -33.75007629 78.49186707 C-34.20636665 79.75502495 -34.20636665 79.75502495 -34.671875 81.04370117 C-34.94103226 81.78694138 -35.21018951 82.53018158 -35.48750305 83.29594421 C-36.11430023 84.86326488 -36.11430023 84.86326488 -36.0612793 86.00585938 C-31.00757198 86.03060259 -25.95390004 86.04873991 -20.90014648 86.06079102 C-19.18139023 86.06581567 -17.46263825 86.07263647 -15.74389648 86.08129883 C-13.27155504 86.09344617 -10.79927017 86.0991064 -8.3269043 86.10351562 C-7.17668793 86.11125755 -7.17668793 86.11125755 -6.00323486 86.11915588 C-2.51278314 86.11952182 0.58146544 85.94338675 3.9387207 85.00585938 C1.97985576 77.64610887 -0.13884611 70.35484003 -2.41674805 63.08789062 C-2.72324783 62.10463303 -3.02974762 61.12137543 -3.34553528 60.10832214 C-4.31145444 57.01109358 -5.28006673 53.91471524 -6.2487793 50.81835938 C-6.90976599 48.70057682 -7.57057487 46.58273876 -8.23120117 44.46484375 C-9.83917515 39.31120642 -11.44935267 34.1582617 -13.0612793 29.00585938 C-13.7212793 29.00585938 -14.3812793 29.00585938 -15.0612793 29.00585938 Z " fill="#000000" transform="translate(1721.061279296875,117.994140625)"/>
<path d="M0 0 C0.495 0.495 0.495 0.495 1 1 C0.93607199 2.83647742 0.79944271 4.67070892 0.625 6.5 C0.53476562 7.5003125 0.44453125 8.500625 0.3515625 9.53125 C0 12 0 12 -1 13 C-4.03025802 13.53821001 -7.07076988 13.96556821 -10.1171875 14.40234375 C-13.18013813 14.84980475 -13.18013813 14.84980475 -16 17 C-16.86099042 23.19281183 -14.79382236 27.56721752 -12.1875 33 C-11.79022705 33.85360107 -11.3929541 34.70720215 -10.98364258 35.58666992 C-9.6697055 38.39790182 -8.3354174 41.19891498 -7 44 C-6.03074403 46.05835557 -5.06200259 48.1169535 -4.09375 50.17578125 C1.58625561 62.27891267 1.58625561 62.27891267 8 74 C12.20204527 67.43183131 16.02868987 60.69119621 19.8125 53.875 C26.87258687 41.16610474 26.87258687 41.16610474 29.62109375 36.5703125 C33.58753083 29.93437546 37 23.96219244 37 16 C32.38 15.01 27.76 14.02 23 13 C22.9227582 8.44273372 23.00703588 4.46442924 24 0 C25.22847656 0.0721875 26.45695313 0.144375 27.72265625 0.21875 C44.15577282 1.1087846 60.54900956 1.1045682 77 1 C78.30283347 4.90850041 78.02322679 7.64247989 77.1796875 11.640625 C76 14 76 14 73.6953125 15.296875 C70.875 16.1875 70.875 16.1875 68.1171875 16.79296875 C60.41120098 19.77686578 55.67378621 26.2454578 51.5625 33.125 C51.07297852 33.92123779 50.58345703 34.71747559 50.07910156 35.5378418 C48.36505396 38.34644927 46.67957821 41.17064342 45 44 C44.66579041 44.56249451 44.33158081 45.12498901 43.98724365 45.70452881 C39.29769461 53.60253192 34.63725893 61.51786771 30.04882812 69.47509766 C28.66403769 71.87281814 27.24823553 74.24839733 25.81054688 76.61474609 C18.5994623 88.5966534 16.50554142 98.81620105 16.66381836 112.70922852 C16.68772001 114.95820154 16.68431845 117.20600761 16.67773438 119.45507812 C16.27650431 127.5958632 16.27650431 127.5958632 19 135 C25.04920535 137.81853084 32.49587757 137.21883029 39 137 C38.85795259 138.58367747 38.71119847 140.16693318 38.5625 141.75 C38.44068359 143.07257813 38.44068359 143.07257813 38.31640625 144.421875 C38.03709315 146.69775952 37.57793339 148.78698816 37 151 C35.99026123 150.98952637 34.98052246 150.97905273 33.94018555 150.96826172 C13.17479621 150.77201523 -7.3108173 151.01949704 -28 153 C-27.34 148.71 -26.68 144.42 -26 140 C-24.123125 139.4225 -22.24625 138.845 -20.3125 138.25 C-13.90422155 136.27373939 -13.90422155 136.27373939 -9 132 C-3.08542928 114.9837484 -7.39284745 95.76503505 -14.87832642 80.1701355 C-17.2080174 75.45499514 -19.632368 70.78893919 -22.0625 66.125 C-22.43550232 65.40643829 -22.80850464 64.68787659 -23.19281006 63.94754028 C-25.43957278 59.6193327 -27.69686133 55.29676438 -29.96258545 50.97845459 C-30.92662284 49.13993768 -31.88751391 47.29977191 -32.84814453 45.45947266 C-34.42700861 42.44477908 -36.02170086 39.43925415 -37.625 36.4375 C-38.07238525 35.58365723 -38.51977051 34.72981445 -38.98071289 33.85009766 C-42.89541918 26.61968847 -47.35658923 19.05255454 -55.625 16.5625 C-56.97464844 16.13130859 -56.97464844 16.13130859 -58.3515625 15.69140625 C-60.87796579 15.03185849 -63.43962953 14.51207409 -66 14 C-65.67 9.71 -65.34 5.42 -65 1 C-63.94312988 1.00523682 -62.88625977 1.01047363 -61.79736328 1.01586914 C-57.78272386 1.03430973 -53.76808795 1.04557082 -49.75341797 1.05493164 C-48.03335943 1.05988444 -46.31330492 1.06664849 -44.59326172 1.07543945 C-34.75986953 1.12434749 -24.98187225 1.01171738 -15.16751099 0.35255432 C-4.96056412 -0.32176056 -4.96056412 -0.32176056 0 0 Z " fill="#000000" transform="translate(923,119)"/>
<path d="M0 0 C2.52845764 0.01876831 2.52845764 0.01876831 5.82836914 0.36669922 C15.46936184 1.19817695 25.07485719 1.14454257 34.74609375 1.1328125 C36.73039258 1.1334881 38.71469132 1.13446025 40.69898987 1.13571167 C44.83652543 1.13717693 48.97403925 1.13507229 53.11157227 1.13037109 C58.37393904 1.12467831 63.63625475 1.12795749 68.89861965 1.13394356 C72.99022292 1.13758419 77.08181439 1.13639455 81.17341805 1.13381577 C83.11199004 1.13315596 85.05056316 1.13394121 86.98913383 1.13629532 C97.13543825 1.14591577 107.15328551 1.00144497 117.25746155 0.01876831 C118.16249924 0.01257477 119.06753693 0.00638123 120 0 C122.91557134 2.91557134 122.5730315 6.14845893 122.8515625 10.078125 C122.91532074 10.88231873 122.97907898 11.68651245 123.04476929 12.51507568 C123.17829228 14.21952176 123.307456 15.92431404 123.43261719 17.62939453 C123.62326394 20.2263517 123.82599072 22.82212968 124.03125 25.41796875 C124.15956525 27.07546594 124.28719144 28.73301664 124.4140625 30.390625 C124.47340973 31.16271301 124.53275696 31.93480103 124.59390259 32.73028564 C124.8934494 36.83097621 125.06121448 40.88475436 125 45 C120.32798795 46.20568053 115.78503708 46.09382426 111 46 C109.57918073 42.06542356 108.55955299 38.13265702 107.625 34.0625 C106.35870489 29.00985714 105.18030967 25.15207095 102 21 C95.14901941 17.12208646 88.45640936 16.9581943 80.75390625 16.98046875 C79.49006104 16.98328857 78.22621582 16.9861084 76.92407227 16.98901367 C75.95912842 16.99263916 74.99418457 16.99626465 74 17 C72.13948347 45.49813024 70.91381528 73.92240941 70.76983643 102.48712158 C70.75666435 104.81979501 70.7387579 107.15244675 70.71600342 109.48504639 C70.68612853 112.78183194 70.67634876 116.0780941 70.671875 119.375 C70.65957855 120.37270416 70.6472821 121.37040833 70.63461304 122.39834595 C70.63819878 129.20373996 70.63819878 129.20373996 74 135 C80.48735762 139.32490508 89.45658861 138.12689851 97 138 C98.15837573 141.47512718 97.77265943 143.13670286 97.0625 146.6875 C96.86785156 147.68136719 96.67320313 148.67523438 96.47265625 149.69921875 C96.31667969 150.45847656 96.16070313 151.21773437 96 152 C95.44163956 151.99777939 94.88327911 151.99555878 94.30799866 151.99327087 C58.13881514 151.74774825 58.13881514 151.74774825 22 153 C22.14148989 151.3954444 22.28835686 149.79136233 22.4375 148.1875 C22.51871094 147.29417969 22.59992188 146.40085937 22.68359375 145.48046875 C23 143 23 143 24 140 C25.01320313 139.82984375 26.02640625 139.6596875 27.0703125 139.484375 C28.42200801 139.24031887 29.77356338 138.99548568 31.125 138.75 C31.79015625 138.64042969 32.4553125 138.53085937 33.140625 138.41796875 C37.8544768 137.53989832 41.28289372 136.1986968 45 133 C47.54147008 127.53306456 47.30629795 122.0339867 47.31884766 116.12939453 C47.33391609 114.50411079 47.33391609 114.50411079 47.34928894 112.84599304 C47.38010808 109.27493811 47.39715281 105.70395812 47.4140625 102.1328125 C47.43277514 99.65273393 47.45234862 97.17266171 47.4727478 94.69259644 C47.52406472 88.17264557 47.56369298 81.65267406 47.60089111 75.13262939 C47.63987883 68.4763836 47.69202476 61.82023168 47.7421875 55.1640625 C47.83894166 42.10943638 47.92372354 29.05476101 48 16 C44.31085475 16.25080604 40.62428441 16.52924433 36.9375 16.8125 C35.89916016 16.88275391 34.86082031 16.95300781 33.79101562 17.02539062 C26.8284305 17.57797675 20.99469286 18.20868187 15.69921875 23.14453125 C13.47787378 26.87741211 12.66236552 30.45968796 11.8125 34.6875 C10.07259825 42.85480349 10.07259825 42.85480349 9 45 C5.61693011 46.09131287 2.32687593 46.04058591 -1.19140625 46.0234375 C-2.09189697 46.02005371 -2.9923877 46.01666992 -3.92016602 46.01318359 C-4.60651123 46.00883301 -5.29285645 46.00448242 -6 46 C-5.47957354 39.76922719 -4.94515603 33.53976959 -4.40087891 27.31103516 C-4.21729382 25.19087106 -4.03694302 23.07042437 -3.85986328 20.94970703 C-3.60513525 17.90577818 -3.33888625 14.86304696 -3.0703125 11.8203125 C-2.99313995 10.86818878 -2.91596741 9.91606506 -2.8364563 8.93508911 C-2.75652435 8.05432709 -2.67659241 7.17356506 -2.59423828 6.26611328 C-2.52761993 5.48889923 -2.46100159 4.71168518 -2.3923645 3.91091919 C-2 2 -2 2 0 0 Z " fill="#000000" transform="translate(1503,118)"/>
<path d="M0 0 C-0.33 4.29 -0.66 8.58 -1 13 C-3.76692708 13.68359375 -6.53385417 14.3671875 -9.30078125 15.05078125 C-12.15816039 16.05561935 -13.14838282 16.66612364 -15 19 C-17.58172024 27.82277202 -17.58144611 37.48562169 -18.0625 46.625 C-18.10324646 47.36134674 -18.14399292 48.09769348 -18.18597412 48.85635376 C-18.9061336 61.95994317 -19.31785595 75.0683331 -19.625 88.1875 C-19.65583176 89.50044037 -19.65583176 89.50044037 -19.68728638 90.83990479 C-19.81748478 96.55961798 -19.92319212 102.27931918 -20 108 C-20.01027222 108.76378967 -20.02054443 109.52757935 -20.03112793 110.31451416 C-20.0566456 112.49745066 -20.07327828 114.68023588 -20.0859375 116.86328125 C-20.09826416 118.7182019 -20.09826416 118.7182019 -20.11083984 120.6105957 C-19.9602525 125.2154506 -19.19573267 129.55870722 -18 134 C-5.38621069 136.78099292 9.89420376 138.06709068 22 132.5 C29.03052719 126.64122734 30.79244021 117.99618919 32.48120117 109.35839844 C33.5431648 104.37073544 33.5431648 104.37073544 35.76171875 102.5703125 C38.44057639 101.88774144 40.99181501 101.57201321 43.75 101.375 C45.22726562 101.26285156 45.22726562 101.26285156 46.734375 101.1484375 C47.48203125 101.09945312 48.2296875 101.05046875 49 101 C49.97420459 104.12854614 49.98198856 106.4336327 49.48681641 109.66088867 C49.3498233 110.57831345 49.2128302 111.49573822 49.07168579 112.44096375 C48.9165451 113.4233754 48.76140442 114.40578705 48.6015625 115.41796875 C48.44714691 116.43095535 48.29273132 117.44394196 48.13363647 118.48762512 C47.80603849 120.6257073 47.47461521 122.76320636 47.13964844 124.90014648 C46.62554272 128.18403334 46.12432578 131.46969615 45.625 134.75585938 C45.30544488 136.83084595 44.98515766 138.90571993 44.6640625 140.98046875 C44.51297028 141.96895309 44.36187805 142.95743744 44.20620728 143.97587585 C44.06290985 144.88384415 43.91961243 145.79181244 43.77197266 146.72729492 C43.64682281 147.53019455 43.52167297 148.33309418 43.39273071 149.1603241 C43 151 43 151 42 152 C40.60708735 152.10052338 39.20903379 152.13081908 37.8125 152.1328125 C36.90242188 152.13474609 35.99234375 152.13667969 35.0546875 152.13867188 C34.04664063 152.13416016 33.03859375 152.12964844 32 152.125 C30.95070313 152.12306641 29.90140625 152.12113281 28.8203125 152.11914062 C18.18325882 152.06386725 7.55548302 151.73434921 -3.07421875 151.35595703 C-17.8093817 150.8490299 -32.30190318 150.91882787 -47 152 C-48.37235989 152.09686481 -49.74475581 152.19322048 -51.1171875 152.2890625 C-54.41181162 152.52107828 -57.70596174 152.75980971 -61 153 C-60.34 148.38 -59.68 143.76 -59 139 C-56.64875 138.4121875 -56.64875 138.4121875 -54.25 137.8125 C-49.74040965 136.46663923 -47.41972623 135.20821953 -45 131 C-43.99779006 127.99337018 -43.84646753 125.90418165 -43.79467773 122.75805664 C-43.77474258 121.67753525 -43.75480743 120.59701385 -43.73426819 119.48374939 C-43.71754562 118.30446365 -43.70082306 117.12517792 -43.68359375 115.91015625 C-43.66272202 114.67830093 -43.64185028 113.44644562 -43.62034607 112.17726135 C-43.56533201 108.83210055 -43.51490189 105.48694124 -43.46736908 102.14167023 C-43.43755853 100.06657453 -43.40617919 97.99150819 -43.37432861 95.91644287 C-43.09803578 77.81994239 -42.89879171 59.72380479 -42.875 41.625 C-42.8724118 40.71033966 -42.86982361 39.79567932 -42.86715698 38.853302 C-42.86135985 36.29018123 -42.86282525 33.72718382 -42.8671875 31.1640625 C-42.86520859 30.43135635 -42.86322968 29.69865021 -42.8611908 28.94374084 C-42.88122929 24.5208187 -43.28443234 20.35096405 -44 16 C-47.30321824 14.99569612 -50.24640007 14.92649186 -53.6875 15 C-55.45793582 15.03751917 -57.22978561 15.04681559 -59 15 C-59.33 14.67 -59.66 14.34 -60 14 C-59.93595446 11.99712128 -59.79920681 9.99631585 -59.625 8 C-59.53476563 6.906875 -59.44453125 5.81375 -59.3515625 4.6875 C-59 2 -59 2 -58 1 C-55.55817377 0.92357351 -53.14441532 0.90934887 -50.703125 0.9375 C-49.95851013 0.94128662 -49.21389526 0.94507324 -48.44671631 0.94897461 C-45.25753965 0.9652701 -42.06849071 0.99291934 -38.87939453 1.02050781 C-30.12990088 1.08976021 -21.49229331 1.04914769 -12.76977539 0.22485352 C-8.50468232 -0.12139159 -4.27676993 -0.06383239 0 0 Z " fill="#000000" transform="translate(1863,119)"/>
</svg>
